<?xml version="1.0" standalone="no"?>
<!DOCTYPE svg PUBLIC "-//W3C//DTD SVG 20010904//EN"
 "http://www.w3.org/TR/2001/REC-SVG-20010904/DTD/svg10.dtd">
<svg version="1.0" xmlns="http://www.w3.org/2000/svg"
 width="512.000000pt" height="512.000000pt" viewBox="0 0 512.000000 512.000000"
 preserveAspectRatio="xMidYMid meet">

<g transform="translate(0.000000,512.000000) scale(0.100000,-0.100000)"
fill="#000000" stroke="none">
<path d="M1055 4411 c-456 -264 -840 -488 -852 -499 l-23 -20 0 -981 0 -980
22 -24 c13 -13 395 -239 850 -501 591 -340 835 -476 857 -476 21 0 119 51 316
166 158 91 288 164 290 162 1 -2 -69 -112 -156 -246 -88 -134 -162 -255 -165
-268 -4 -15 0 -34 10 -50 33 -50 44 -49 301 5 131 28 239 50 241 49 1 -2 23
-102 48 -223 26 -121 51 -233 58 -248 20 -51 80 -63 121 -24 14 12 140 200
281 419 277 426 286 437 343 407 29 -16 46 -40 327 -474 114 -176 218 -331
231 -344 16 -16 35 -24 56 -24 58 0 70 25 123 281 34 163 53 232 62 232 8 0
110 -20 227 -45 118 -25 226 -45 241 -45 32 0 76 40 76 70 0 29 0 29 -217 363
-106 164 -193 300 -193 302 0 2 14 6 30 10 37 8 86 48 105 86 28 53 20 99 -57
321 l-44 128 94 112 c114 137 152 200 152 251 0 80 -42 123 -239 240 l-131 78
0 148 c0 225 -16 282 -91 326 -44 26 -121 25 -285 -4 -67 -12 -131 -21 -142
-21 -15 0 -54 38 -127 124 -58 69 -117 131 -130 140 l-24 16 -3 270 -3 270
-25 23 c-14 14 -324 197 -690 407 -366 211 -737 425 -826 477 -88 51 -171 93
-185 93 -14 0 -378 -204 -854 -479z m1078 179 l216 -125 -27 -16 c-158 -98
-1456 -839 -1465 -837 -20 5 -427 241 -427 248 0 7 1473 859 1481 857 3 -1
103 -58 222 -127z m501 -289 c66 -39 129 -76 139 -83 17 -13 -56 -57 -722
-442 -408 -235 -745 -426 -749 -424 -26 11 -263 151 -267 158 -3 4 194 123
438 263 243 141 575 332 737 426 162 94 297 171 299 171 2 0 58 -31 125 -69z
m543 -313 c117 -68 213 -125 213 -128 0 -3 -333 -197 -741 -432 l-740 -428
-215 124 c-118 68 -216 127 -217 130 -2 7 1463 855 1477 856 5 0 105 -55 223
-122z m-2584 -412 l187 -108 0 -304 0 -305 25 -24 c35 -36 69 -31 159 20 44
25 84 44 90 41 6 -2 49 -71 96 -152 47 -82 95 -159 107 -171 31 -32 68 -29
104 6 l29 29 0 252 c0 198 3 251 13 247 6 -3 104 -59 217 -124 l205 -119 3
-857 c1 -471 -1 -857 -5 -857 -4 0 -339 192 -745 426 l-738 426 0 860 0 860
33 -19 c17 -11 116 -68 220 -127z m2810 -300 c-43 -45 -105 -111 -138 -149
l-60 -67 -140 25 c-223 40 -301 31 -344 -39 -26 -42 -31 -78 -39 -275 l-7
-164 -125 -72 c-207 -120 -259 -182 -229 -273 15 -47 31 -71 148 -216 l95
-118 -43 -122 c-78 -221 -87 -275 -50 -335 11 -18 17 -37 12 -41 -12 -11 -481
-280 -487 -280 -3 0 -6 386 -6 858 l0 857 183 104 c100 58 434 250 742 428
l560 324 3 -182 2 -182 -77 -81z m-2314 13 l141 -81 0 -134 c0 -74 -2 -134 -5
-134 -2 0 -22 31 -44 68 -41 71 -77 98 -114 86 -11 -3 -42 -19 -69 -35 -27
-16 -51 -29 -53 -29 -3 0 -5 77 -5 170 0 94 2 170 4 170 2 0 67 -36 145 -81z
m2606 -223 c66 -80 130 -150 143 -157 19 -10 55 -7 222 20 110 18 205 29 210
26 6 -4 10 -84 10 -204 0 -175 2 -201 18 -220 9 -12 91 -66 181 -120 91 -54
166 -102 168 -107 2 -6 -51 -75 -117 -155 -67 -79 -125 -155 -131 -168 -8 -19
4 -62 58 -222 37 -109 65 -200 63 -202 -3 -3 -92 -21 -199 -41 -121 -22 -200
-41 -211 -51 -10 -9 -48 -96 -85 -193 -37 -97 -72 -183 -79 -189 -9 -10 -44 6
-161 74 -83 47 -165 92 -184 100 -39 17 -32 20 -269 -111 -78 -43 -145 -76
-148 -73 -3 3 -34 82 -69 175 -71 191 -79 208 -103 221 -9 5 -96 23 -192 40
-207 37 -210 38 -210 57 0 8 27 89 60 181 33 91 60 180 60 197 0 26 -25 63
-129 191 -99 123 -127 163 -118 172 7 6 82 52 169 103 86 50 162 98 170 107 9
12 14 71 18 224 3 114 8 210 11 213 3 3 82 -8 175 -24 93 -16 187 -30 209 -30
47 0 62 14 224 203 51 59 98 107 104 107 7 0 66 -65 132 -144z m827 -1956 c87
-134 155 -246 150 -248 -5 -1 -83 13 -173 33 -90 19 -172 35 -181 35 -9 0 -29
-10 -43 -23 -23 -19 -31 -45 -63 -195 -20 -95 -40 -174 -45 -175 -4 -1 -61 81
-127 183 l-120 185 43 7 c95 17 119 55 236 369 21 56 22 56 74 66 28 6 61 10
71 9 13 -1 68 -76 178 -246z m-1628 221 c17 -7 32 -35 66 -128 82 -225 131
-293 210 -293 22 0 40 -3 40 -7 0 -5 -56 -93 -124 -198 -108 -163 -125 -186
-131 -165 -3 14 -21 96 -39 183 -21 97 -41 166 -52 178 -24 27 -72 24 -254
-16 -85 -18 -156 -32 -158 -30 -3 3 247 392 301 469 19 26 23 28 69 22 27 -4
59 -11 72 -15z"/>
<path d="M3405 2875 c-273 -60 -494 -272 -567 -544 -29 -109 -29 -269 1 -376
75 -271 265 -461 536 -536 108 -30 267 -30 378 0 130 34 229 93 333 196 101
100 147 172 190 300 38 115 45 275 15 398 -53 224 -191 397 -398 501 -139 70
-336 95 -488 61z m300 -160 c109 -28 184 -72 270 -159 121 -121 175 -249 175
-416 0 -319 -260 -581 -580 -584 -168 -1 -302 54 -421 173 -120 120 -174 253
-173 426 2 159 78 325 197 430 60 53 173 112 249 131 74 17 212 17 283 -1z"/>
<path d="M3827 2403 c-25 -21 -129 -119 -231 -217 l-187 -180 -92 91 c-51 50
-102 94 -114 98 -43 12 -92 -30 -93 -79 0 -24 22 -52 132 -163 165 -166 164
-166 276 -61 263 247 446 426 453 446 10 26 -4 70 -29 88 -30 24 -68 16 -115
-23z"/>
</g>
</svg>
