<?xml version="1.0" standalone="no"?>
<!DOCTYPE svg PUBLIC "-//W3C//DTD SVG 20010904//EN"
 "http://www.w3.org/TR/2001/REC-SVG-20010904/DTD/svg10.dtd">
<svg version="1.0" xmlns="http://www.w3.org/2000/svg"
 width="512.000000pt" height="512.000000pt" viewBox="0 0 512.000000 512.000000"
 preserveAspectRatio="xMidYMid meet">

<g transform="translate(0.000000,512.000000) scale(0.100000,-0.100000)"
fill="#000000" stroke="none">
<path d="M2492 5019 c-123 -24 -231 -108 -289 -227 -36 -73 -38 -80 -38 -176
0 -93 3 -107 32 -168 129 -273 470 -331 675 -116 222 232 98 619 -220 687 -60
12 -98 13 -160 0z"/>
<path d="M795 4585 c-22 -8 -53 -29 -68 -47 -27 -31 -501 -1035 -532 -1126
-19 -55 -4 -121 35 -161 23 -23 589 -298 595 -289 0 2 7 36 13 76 16 95 21
107 294 662 220 447 238 480 298 543 34 37 61 69 59 72 -12 11 -592 267 -634
278 -11 3 -38 0 -60 -8z"/>
<path d="M1753 4315 c-86 -24 -173 -73 -230 -131 -50 -49 -74 -95 -290 -532
-251 -509 -278 -570 -289 -652 l-7 -53 61 7 c134 15 237 63 339 158 34 32 65
58 68 58 15 0 46 -22 55 -40 14 -27 -6 -65 -60 -114 -107 -97 -253 -161 -395
-173 l-75 -6 0 -51 c0 -151 80 -295 194 -351 l53 -26 545 1 c320 0 556 -4 570
-9 14 -5 28 -17 31 -25 4 -9 2 -237 -4 -507 -8 -382 -8 -497 1 -520 34 -82
138 -107 204 -49 40 35 49 67 90 320 41 251 59 449 59 675 1 199 0 213 -22
262 -31 69 -104 137 -168 156 -27 8 -202 32 -389 52 -215 24 -347 42 -361 51
-14 9 -23 24 -23 38 0 13 56 171 124 351 l123 326 -24 61 c-30 72 -68 222 -76
296 -5 44 -3 56 13 72 11 11 28 20 38 20 37 0 53 -24 63 -95 15 -108 46 -211
94 -313 88 -185 191 -308 302 -360 55 -26 65 -27 208 -26 154 2 363 32 593 85
87 20 93 23 87 43 -3 11 -9 47 -12 79 l-6 57 -81 1 c-44 0 -208 4 -364 8 -225
6 -285 10 -296 22 -7 8 -30 72 -50 143 -48 167 -117 360 -168 463 -48 99 -110
161 -205 205 -58 27 -79 32 -167 35 -68 2 -118 -2 -153 -12z"/>
<path d="M3740 3671 c-32 -10 -90 -40 -90 -47 0 -3 16 -21 35 -41 46 -48 69
-119 63 -197 -6 -69 -22 -107 -67 -155 -17 -18 -31 -35 -31 -37 0 -2 19 -14
43 -26 38 -21 59 -23 210 -26 l167 -4 0 271 0 271 -152 -1 c-84 0 -164 -4
-178 -8z"/>
<path d="M4180 3410 l0 -270 68 0 c40 0 73 5 80 12 8 8 12 46 12 105 l0 93 68
0 c84 0 115 17 110 63 -4 41 -35 57 -115 57 l-63 0 0 93 c0 59 -4 97 -12 105
-7 7 -40 12 -80 12 l-68 0 0 -270z"/>
<path d="M3462 3550 c-19 -4 -47 -20 -63 -36 -96 -92 -34 -244 101 -244 82 0
140 58 140 141 0 95 -84 160 -178 139z"/>
<path d="M3895 3031 c-90 -5 -110 -9 -108 -21 1 -8 11 -76 22 -150 55 -364 78
-690 61 -864 -47 -515 -338 -819 -848 -887 -121 -16 -401 -6 -517 19 -336 73
-542 232 -680 526 -24 50 -49 110 -56 134 l-12 42 -757 0 -757 0 -43 -23 c-30
-16 -51 -37 -67 -67 l-23 -43 0 -444 c0 -377 2 -449 15 -480 31 -73 73 -101
168 -110 l63 -5 12 95 c42 333 270 592 602 683 89 24 279 25 375 0 157 -40
333 -150 425 -267 98 -124 163 -280 177 -424 l8 -80 810 -3 c853 -3 1026 3
1160 38 251 67 439 206 530 394 74 153 90 235 90 476 0 173 -4 223 -23 320
-65 327 -164 612 -334 963 l-91 187 -46 -2 c-25 -1 -95 -4 -156 -7z"/>
<path d="M16 2274 c-23 -23 -23 -285 0 -308 14 -14 114 -16 958 -16 719 0 945
3 954 12 8 8 12 58 12 158 0 100 -4 150 -12 158 -9 9 -235 12 -954 12 -844 0
-944 -2 -958 -16z"/>
<path d="M1059 1340 c-252 -40 -470 -221 -548 -457 -23 -68 -45 -199 -35 -214
3 -5 283 -9 685 -9 l679 0 0 38 c-1 72 -30 178 -76 272 -64 130 -171 238 -294
298 -47 23 -111 48 -142 56 -76 19 -200 27 -269 16z"/>
<path d="M4622 1223 c-46 -178 -151 -344 -283 -448 l-71 -55 427 0 427 0 -7
43 c-33 210 -181 414 -368 507 -44 22 -84 40 -91 40 -6 0 -21 -39 -34 -87z"/>
<path d="M3968 598 c-44 -12 -46 -22 -23 -111 68 -262 324 -432 583 -387 198
33 367 186 417 375 8 33 15 76 15 97 l0 38 -477 -1 c-282 -1 -493 -5 -515 -11z"/>
<path d="M656 488 c61 -258 321 -432 583 -388 195 33 358 178 415 369 9 30 16
61 16 68 0 11 -95 13 -514 13 l-514 0 14 -62z"/>
</g>
</svg>
