<?xml version="1.0" standalone="no"?>
<!DOCTYPE svg PUBLIC "-//W3C//DTD SVG 20010904//EN"
 "http://www.w3.org/TR/2001/REC-SVG-20010904/DTD/svg10.dtd">
<svg version="1.0" xmlns="http://www.w3.org/2000/svg"
 width="512.000000pt" height="512.000000pt" viewBox="0 0 512.000000 512.000000"
 preserveAspectRatio="xMidYMid meet">

<g transform="translate(0.000000,512.000000) scale(0.100000,-0.100000)"
fill="#000000" stroke="none">
<path d="M1024 5099 c-70 -27 -137 -99 -158 -170 -14 -44 -16 -121 -16 -486
l0 -434 -57 3 -56 3 -39 115 c-21 63 -46 123 -57 133 -18 18 -340 117 -381
117 -29 0 -78 -27 -90 -49 -5 -11 -10 -36 -10 -56 0 -62 34 -85 192 -130 l137
-38 55 -171 c30 -94 105 -329 167 -523 l112 -352 -23 -81 c-13 -45 -28 -84
-34 -86 -92 -31 -133 -52 -173 -89 -150 -134 -146 -367 8 -498 53 -46 134 -77
199 -77 l50 0 0 -675 c0 -654 1 -676 20 -729 14 -36 36 -68 66 -96 88 -81 0
-75 1104 -78 l986 -2 31 -53 c58 -97 85 -198 88 -327 3 -128 10 -152 55 -203
61 -70 38 -68 785 -65 657 3 671 3 710 24 22 11 54 40 70 63 l30 43 6 246 c3
136 11 261 16 277 6 17 29 68 51 115 22 47 51 117 64 155 23 70 23 72 26 673
l3 604 -26 56 c-32 71 -75 116 -140 149 -57 30 -159 41 -216 25 l-37 -10 -6
44 c-13 97 -89 194 -185 237 -51 23 -175 28 -222 9 -23 -9 -27 -7 -49 34 -29
55 -88 110 -149 137 -48 21 -152 29 -203 14 l-27 -7 -3 1007 -3 1008 -28 57
c-16 32 -47 73 -70 93 -79 68 -13 65 -1331 64 -1162 0 -1192 -1 -1242 -20z
m2451 -204 l25 -24 0 -731 0 -730 -27 7 c-16 5 -59 8 -98 7 -116 -1 -214 -64
-266 -170 l-24 -49 -3 -567 -2 -567 -68 32 c-56 27 -79 32 -142 32 -65 0 -82
-4 -130 -31 -68 -38 -107 -96 -120 -179 -5 -33 -10 -174 -10 -312 l0 -253
-780 0 -780 0 0 480 0 480 29 40 c15 21 34 53 41 70 l12 30 307 0 307 0 17
-39 c87 -196 357 -254 521 -110 55 49 103 143 112 221 14 125 -58 257 -178
323 -49 28 -61 30 -153 30 -92 0 -104 -2 -153 -30 -62 -34 -136 -111 -154
-161 l-12 -34 -306 0 -305 0 -29 56 c-16 30 -51 75 -78 98 l-50 44 14 48 14
49 700 5 701 5 35 27 c32 24 68 81 68 106 0 5 47 184 105 398 58 213 105 401
105 417 0 20 -11 40 -34 63 l-34 34 -801 0 -801 0 0 430 0 431 25 24 24 25
1176 0 1176 0 24 -25z m-999 -1122 c-4 -16 -41 -158 -84 -318 l-77 -290 -654
0 -654 0 -77 265 c-43 146 -85 289 -93 318 l-16 52 830 0 831 0 -6 -27z m960
-558 c65 -27 64 -15 64 -690 0 -397 4 -613 10 -626 29 -53 116 -61 161 -13
l24 26 5 368 c6 412 3 398 80 421 30 9 44 8 73 -6 66 -31 67 -35 67 -482 0
-443 -2 -431 67 -460 31 -12 38 -12 71 4 20 10 42 29 49 43 9 18 13 109 13
340 0 345 0 344 60 375 37 19 63 19 100 0 59 -30 60 -39 60 -435 0 -384 2
-404 49 -430 35 -18 88 -12 118 14 l28 24 5 247 5 247 33 29 c52 47 131 37
165 -21 15 -25 17 -83 17 -577 0 -622 3 -597 -81 -775 -66 -139 -78 -211 -79
-450 l0 -188 -625 0 -625 0 0 68 c0 229 -98 457 -252 591 -24 21 -79 64 -123
98 -44 33 -97 79 -118 102 l-37 41 0 410 c0 398 1 410 20 420 35 19 123 -15
172 -67 55 -57 62 -90 66 -315 4 -204 4 -208 28 -232 48 -48 127 -36 156 24
17 33 18 98 18 926 l0 891 21 27 c36 46 77 55 135 31z m-2566 -540 c48 -25 70
-62 70 -117 0 -43 -5 -55 -33 -83 -85 -85 -217 -29 -217 90 0 91 99 152 180
110z m1250 0 c45 -23 70 -62 70 -109 0 -120 -132 -176 -217 -91 -28 28 -33 40
-33 82 0 55 17 85 64 114 37 23 77 24 116 4z m502 -1573 c10 -68 48 -143 105
-203 l46 -49 -837 0 -837 0 -24 25 c-24 23 -25 29 -25 155 l0 130 782 -2 783
-3 7 -53z"/>
<path d="M2156 4745 c-41 -22 -55 -44 -56 -87 0 -28 8 -46 29 -70 l29 -33 124
-3 c152 -5 201 6 228 51 24 39 25 59 5 97 -26 50 -59 60 -202 60 -95 0 -136
-4 -157 -15z"/>
</g>
</svg>
